<?xml version="1.0" encoding="UTF-8" standalone="no"?>
<!-- Created with Inkscape (http://www.inkscape.org/) -->

<svg
   width="210mm"
   height="297mm"
   viewBox="0 0 210 297"
   version="1.1"
   id="svg1"
   xml:space="preserve"
   inkscape:version="1.4.1 (1:1.4.1+202503302257+93de688d07)"
   sodipodi:docname="drawing.svg"
   xmlns:inkscape="http://www.inkscape.org/namespaces/inkscape"
   xmlns:sodipodi="http://sodipodi.sourceforge.net/DTD/sodipodi-0.dtd"
   xmlns="http://www.w3.org/2000/svg"
   xmlns:svg="http://www.w3.org/2000/svg"><sodipodi:namedview
     id="namedview1"
     pagecolor="#ffffff"
     bordercolor="#000000"
     borderopacity="0.25"
     inkscape:showpageshadow="2"
     inkscape:pageopacity="0.0"
     inkscape:pagecheckerboard="0"
     inkscape:deskcolor="#d1d1d1"
     inkscape:document-units="mm"
     inkscape:zoom="1.0116647"
     inkscape:cx="431.96132"
     inkscape:cy="329.65469"
     inkscape:window-width="1850"
     inkscape:window-height="1011"
     inkscape:window-x="1990"
     inkscape:window-y="254"
     inkscape:window-maximized="1"
     inkscape:current-layer="layer1" /><defs
     id="defs1" /><g
     inkscape:label="Layer 1"
     inkscape:groupmode="layer"
     id="layer1"><path
       style="fill:#e6e6e6"
       d="m 79.749189,127.81009 c -0.678635,-0.0954 -0.96019,-0.34702 -1.373867,-1.22796 -0.56272,-1.19832 -0.631955,-1.82585 -1.168466,-10.59061 -0.0711,-1.16155 -0.143132,-2.12577 -0.160068,-2.1427 -0.07482,-0.0748 -0.880531,1.26423 -1.566597,2.60362 -1.127802,2.20177 -2.405154,3.65268 -4.361404,4.954 -2.736917,1.82063 -6.88267,3.35452 -10.517751,3.89147 -5.558222,0.82103 -10.692687,-0.37735 -13.469677,-3.1438 -0.384175,-0.38272 -0.6985,-0.72952 -0.6985,-0.77066 0,-0.0415 0.63205,-0.062 1.418167,-0.0461 l 1.418166,0.0287 -0.472009,-0.15707 c -1.0515,-0.34993 -1.602324,-0.88399 -1.602324,-1.55356 0,-0.29561 4.47e-4,-0.29595 0.8255,-0.61873 1.349221,-0.52784 2.873231,-1.30818 4.931833,-2.52524 1.250608,-0.73937 1.41533,-0.84295 3.217333,-2.02316 2.706949,-1.77289 3.847946,-2.45761 6.392332,-3.83609 4.128601,-2.23675 5.814612,-3.30043 8.012574,-5.05498 1.530875,-1.22205 2.02056,-1.66749 3.885179,-3.53416 1.843721,-1.84574 2.013157,-2.02456 3.613986,-3.813994 3.274,-3.659739 5.826572,-5.370332 9.527099,-6.384533 3.546637,-0.972026 7.589227,-1.148843 15.516495,-0.67867 4.8748,0.289129 9.56049,0.331061 10.99465,0.09839 1.64283,-0.266525 2.76556,-0.760918 3.68713,-1.623636 0.49962,-0.46771 1.32648,-1.541163 2.25155,-2.923035 0.70265,-1.049619 1.48842,-1.910613 2.22036,-2.432916 0.45888,-0.327451 0.53148,-0.415625 0.5326,-0.646865 0.002,-0.389002 0.28096,-1.434843 0.59105,-2.215068 0.88696,-2.231642 3.0496,-5.620578 4.57903,-7.175499 0.73442,-0.746662 0.94893,-0.814221 1.34086,-0.422293 0.56665,0.566659 0.80073,1.818623 0.80695,4.31598 0.003,1.302857 0.0321,1.808789 0.10467,1.836678 0.0551,0.02117 0.32086,-0.235565 0.59056,-0.570521 0.67239,-0.835085 2.4695,-2.624953 3.27686,-3.263647 1.33864,-1.058987 1.75149,-1.105406 1.9925,-0.224031 0.28886,1.056325 -0.0489,3.305168 -1.01718,6.773333 -0.092,0.329515 -0.0822,0.358231 0.36239,1.062635 0.25132,0.398183 0.66539,1.197851 0.92015,1.77704 0.25476,0.579188 0.63465,1.396283 0.8442,1.815765 0.34369,0.68801 0.42588,0.789456 0.83934,1.03599 0.639,0.381017 1.48577,0.721211 2.67432,1.074431 1.72211,0.511783 1.88007,0.664372 1.7841,1.723437 -0.032,0.35272 -0.13025,0.779492 -0.22006,0.955541 -0.38895,0.762391 -1.53698,1.6395 -2.64479,2.020642 -1.13744,0.391336 -1.7391,0.451307 -4.67658,0.466141 -2.59636,0.01311 -2.83162,0.02674 -3.32589,0.192714 -1.56444,0.525321 -3.09174,1.935405 -4.07865,3.765624 l -0.35047,0.64996 -0.0332,1.398367 c -0.0185,0.77949 -0.0947,1.73315 -0.17221,2.15482 -0.13027,0.70881 -0.12986,0.78241 0.007,1.169 0.22001,0.62374 0.26742,2.17639 0.0834,2.7305 -0.0792,0.23855 -0.18912,0.43373 -0.2442,0.43373 -0.0551,0 -0.2711,-0.21899 -0.48003,-0.48664 l -0.37989,-0.48664 -0.063,0.63215 c -0.1015,1.01777 -0.39652,1.76619 -0.89228,2.26356 -0.34473,0.34586 -0.44168,0.35073 -0.44168,0.0222 0,-0.24696 -0.20227,-0.84395 -0.28594,-0.84395 -0.0223,0 -0.26239,0.12802 -0.53349,0.28449 -0.27109,0.15646 -0.85941,0.48356 -1.30736,0.72687 -1.46602,0.79628 -2.1782,1.51121 -2.74573,2.75631 -0.14858,0.32597 -0.3311,0.85937 -0.40561,1.18533 -0.18265,0.79908 -0.72916,9.05716 -0.73187,11.05882 l -0.001,0.98349 0.50192,0.18301 c 1.02687,0.37442 1.6226,0.93398 1.73364,1.6284 0.0458,0.28667 0.0261,0.3899 -0.0983,0.51428 -0.20833,0.20834 -0.95946,0.32169 -2.09496,0.31613 -1.67698,-0.008 -1.99078,-0.12626 -2.47916,-0.9327 -0.4326,-0.71434 -0.65795,-1.57489 -0.94047,-3.59143 -0.40743,-2.90816 -0.98903,-8.68579 -1.16125,-11.53583 -0.0724,-1.19802 -0.20179,-1.25943 -0.44604,-0.21167 -0.51972,2.22945 -0.99208,4.93446 -1.28998,7.38717 -0.23176,1.90821 -0.26919,5.09448 -0.068,5.78923 0.11783,0.40687 0.12723,0.41524 0.64446,0.57326 0.90001,0.27496 1.48855,0.85976 1.72523,1.71426 0.0785,0.28329 0.0695,0.35128 -0.0634,0.48256 -0.2897,0.28611 -1.50954,0.39193 -3.16402,0.2745 l -0.79163,-0.0562 -0.35621,-0.36651 c -0.43538,-0.44797 -0.85464,-1.41081 -1.01546,-2.33201 -0.16683,-0.95563 -0.68701,-8.4042 -1.0173,-14.56692 -0.067,-1.24983 0.0564,-1.15322 -1.19819,-0.93815 -0.99995,0.17141 -3.4875,0.19464 -4.42292,0.0413 -0.34925,-0.0572 -1.18566,-0.24142 -1.8587,-0.40927 -0.896163,-0.22349 -1.232932,-0.27749 -1.258185,-0.20173 -0.111689,0.33507 -0.969266,1.44956 -1.603217,2.08351 -1.5174,1.5174 -3.863584,2.98865 -6.752227,4.2342 -1.191455,0.51374 -1.488925,0.70393 -2.14659,1.37246 -0.665972,0.67696 -1.086707,1.51127 -1.212332,2.40401 -0.107153,0.76148 -0.04024,4.05615 0.09103,4.48224 0.0874,0.28368 0.132431,0.31549 0.641985,0.45342 0.894376,0.24209 1.736905,1.16544 1.736905,1.90351 0,0.43775 -0.328156,0.5392 -1.88097,0.58149 -0.73185,0.0199 -1.504982,0.0101 -1.718072,-0.0219 -0.688255,-0.10321 -1.200893,-0.7125 -1.608982,-1.91233 -0.233634,-0.68691 -0.372346,-1.8914 -0.589555,-5.11933 -0.175636,-2.61011 -0.214872,-3.00566 -0.29814,-3.00566 -0.338734,0 -1.601215,0.75892 -2.210424,1.32877 -0.679227,0.63533 -0.920352,1.14532 -1.023346,2.16439 -0.130782,1.29402 -0.127981,3.88855 0.005,4.61827 l 0.112688,0.61844 0.690074,0.32757 c 1.007587,0.4783 1.239594,0.71909 1.404296,1.45743 0.110283,0.49439 0.06267,0.62321 -0.27651,0.74817 -0.31331,0.11544 -2.445452,0.18131 -3.062378,0.0946 z"
       id="path1"
       sodipodi:nodetypes="cssssssssscssssssssssssssscssscsssssssssscssssscsscsssccsssssssccscscsssssssscscsssscsssssssssccsssssscssscc" /></g></svg>
