<?xml version="1.0" encoding="UTF-8" standalone="no"?>
<!-- Created with Inkscape (http://www.inkscape.org/) -->

<svg
   version="1.1"
   id="svg1"
   width="198"
   height="343"
   viewBox="0 0 198 343"
   xmlns="http://www.w3.org/2000/svg"
   xmlns:svg="http://www.w3.org/2000/svg">
  <defs
     id="defs1" />
  <g
     id="g1">
    <path
       style="fill:#000000"
       d="m 176.08984,314.48299 -6.8307,-1.65333 c -1.63394,-0.39548 -5.5274,2.61733 -5.82122,2.61733 -0.29382,0 -0.59641,-1.65428 -0.67242,-3.67617 -0.19364,-5.15084 -1.43633,-2.06306 -2.55718,-2.27021 -1.80034,-0.33274 -4.07399,2.82169 -5.13941,1.93747 -0.97935,-0.81279 -0.94191,0.59597 -1.84941,-0.0605 l -3.12966,-2.26394 -5.05253,-1.11538 -4.28161,2.02034 -5.16586,0.42837 -3.5,-2.5 -1.04284,-4.5 -5.91455,4.55691 -5.52455,2.5 -4.29211,-0.0528 -3.18856,0.0657 -1.03739,-3.8816 -1.61464,-3.28333 -4.5965,2.37693 -4.80417,0.40919 -0.962889,-3.68994 -5.97564,3.45349 -9.59212,-1.70453 -2.43757,-2.75 -3.66263,4.6592 -4.16413,2.5 -5.6668,1.42812 -1.9319,3.58732 -2.5455,-3.09634 -7.04551,-0.0783 -2.82256,3 -5.68191,-4.96805 -8.49553,-1.53195 -4.19291,2.39675 -3.21687,3.35325 -4.59022,-0.25 -4.18358,0.54923 -0.31642,2.54922 -5,-2.54504 c -2.27527,-1.15813 -9.0101995,-3.1646 -9.0101995,-1.55341 0,0.55 -0.45,1 -1,1 -0.55,0 0.29941,-0.60633 0.5102,-0.8672 6.2634095,-7.75173 9.0739595,-9.58242 22.0101595,-20.23437 l 23.52036,-19.36718 -0.27036,-19.51563 -0.27036,-19.51562 -10.12598,-2.5 c -5.56929,-1.375 -10.92955,-3.175 -11.91169,-4 -1.82474,-1.53278 -6.87233,-11.92333 -6.14536,-12.6503 0.37846,-0.37846 27.17219,-7.3497 28.24833,-7.3497 0.2763,0 0.22941,-7.12546 0.21853,-10.68966 -0.0109,-3.5642 -0.28383,-10.68965 -0.28383,-10.68965 l -7.5,-1.80751 c -15.80427,-3.80884 -14.84485,-3.25709 -18.22539,-10.48113 -2.03053,-4.33915 -2.6947,-6.7634 -1.97484,-7.2083 0.59656,-0.36869 7.20037,-2.17215 14.67515,-4.00769 l 13.5905,-3.33734 -0.28271,-10.57844 -0.28271,-10.57845 -6.94522,-4.244 c -6.953888,-4.2493 -16.8947,-3.83988 -18.06328,-5.3891 -2.28747,-3.03257 -3.67932,-9.21374 -2.76065,-10.05358 0.42303,-0.38672 6.95665,-2.1628 14.51915,-3.94684 l 13.75,-3.24371 v -9.39374 c 0,-11.028386 2.928633,-12.499745 -13.772477,-16.413329 -6.03959,-1.415263 -5.270261,-0.01333 -7.978752,-2.896676 C 24.430117,73.611936 17.905361,70.721272 19.236601,69.390037 19.752311,68.874322 29.961564,66.843055 39.835544,62.526794 52.667694,56.917411 59.960038,54.580052 68.506789,48.819878 77.883252,42.50051 84.168914,34.57637 88.694651,31.216583 l 7.72553,-5.735229 c 0,0 -1.324432,-1.029899 -0.99862,-2.476346 0.08023,-0.356176 1.053858,-1.102206 1.0955,-1.377563 0.171106,-1.13139 -0.120374,-3.078232 -0.120374,-3.078232 l -7.426554,-0.153478 0.0015,-0.09937 7.483831,-0.142163 0.03729,-2.144362 -7.162223,2.33116 -0.540499,0.06345 7.601168,-2.759541 C 89.810041,15.453217 84.359623,15.316376 84.359623,15.316376 l -0.09909,0.427806 -1.042381,-0.795872 1.338442,-0.546432 -0.09233,0.466519 11.979307,-7.09e-4 2.332063,-11.9175291 1.649016,12.0191351 3.29632,-0.255988 2.89877,-0.08136 3.97243,-1.142273 c 0,0 3.43287,-0.165779 3.4949,1.036812 0.0703,1.360901 -1.48613,1.632816 -2.54749,1.773188 -1.39626,0.184676 -5.07051,-1.068184 -5.07051,-1.068184 l -2.81037,0.124111 -3.22801,0.197024 5.62981,2.528099 0.0486,0.146506 -5.62727,-2.263632 -0.0185,2.217654 5.57136,0.0019 0.23214,0.108641 -5.76404,0.131388 c 0,0 -0.38871,1.272938 -0.31969,3.031156 0.041,1.043982 1.06298,1.320066 0.8699,2.326305 -0.16162,0.842758 -0.95235,2.421063 -0.95235,2.421063 l 10.77553,7.447767 c 4.72119,3.263162 19.67036,14.457829 24.62036,17.666982 4.95,3.209152 13.45781,5.450148 23.08281,9.67862 9.625,4.228472 17.86866,8.02614 18.31924,8.439262 0.45059,0.413122 0.36841,5.614934 -3.20276,7.266348 -6.7744,3.13268 -17.72062,7.662113 -22.00222,8.502041 l -9.11426,1.787955 v 13.440931 9.81016 l 13.55779,3.3293 c 7.45679,1.83112 14.01573,3.61233 14.57542,3.95824 0.63073,0.38981 -0.11689,3.13104 -1.96645,7.21016 -3.29778,7.2731 -1.77056,6.3933 -18.16676,10.46549 l -7.5,1.8627 -0.28355,10.66219 -0.28356,10.66218 2.78356,0.63678 c 9.36581,2.14259 25.50448,6.30576 25.87299,6.67427 0.75348,0.75349 -4.2652,11.16317 -6.22263,12.90691 -1.02675,0.91465 -6.36681,2.72483 -11.86681,4.0226 l -10,2.35963 -0.28355,10.6999 -0.28356,10.69991 2.78356,0.63814 c 7.53202,1.72673 24.61027,6.4102 25.07711,6.87703 1.0339,1.0339 -2.26766,9.07876 -4.76134,11.60194 -1.89907,1.92151 -5.09512,3.15591 -12.78222,4.93681 l -10.25,2.37466 v 19.648 19.648 l 8.16337,6.91519 c 4.48985,3.80335 11.80235,9.98322 16.25,13.73304 13.85385,11.68022 20.58663,17.77446 20.58663,18.63419 0,0.83425 -6.58022,4.19162 -10.75,5.48489 -1.9994,0.62011 0.32623,-2.14291 -0.7398,-2.40094 z"
       id="path1" />
  </g>
</svg>
