<svg xmlns="http://www.w3.org/2000/svg" viewBox="0 0 1200 400" role="img" aria-labelledby="rowhouses-title">
  <title id="rowhouses-title">Baltimore rowhouses architectural silhouette</title>

  <g fill="#000000" stroke="none">

    <!-- House 1 - Brick with formstone base -->
    <g>
      <rect x="0" y="80" width="140" height="320"/>
      <!-- Cornice detail -->
      <rect x="0" y="80" width="140" height="8" fill="#000000" opacity="0.95"/>
      <rect x="0" y="88" width="140" height="3" fill="#ffffff" opacity="0.6"/>

      <!-- Brick pattern -->
      <g opacity="0.25" fill="#ffffff">
        <rect x="5" y="100" width="15" height="3"/>
        <rect x="25" y="100" width="15" height="3"/>
        <rect x="45" y="100" width="15" height="3"/>
        <rect x="65" y="100" width="15" height="3"/>
        <rect x="85" y="100" width="15" height="3"/>
        <rect x="105" y="100" width="15" height="3"/>
        <rect x="125" y="100" width="10" height="3"/>
        <rect x="10" y="110" width="15" height="3"/>
        <rect x="30" y="110" width="15" height="3"/>
        <rect x="50" y="110" width="15" height="3"/>
        <rect x="70" y="110" width="15" height="3"/>
        <rect x="90" y="110" width="15" height="3"/>
        <rect x="110" y="110" width="15" height="3"/>
      </g>

      <!-- Windows - Upper floor -->
      <rect x="15" y="105" width="35" height="50" fill="#ffffff" opacity="0.75"/>
      <rect x="24" y="105" width="2" height="50" fill="#000000" opacity="0.4"/>
      <rect x="15" y="128" width="35" height="2" fill="#000000" opacity="0.4"/>

      <rect x="90" y="105" width="35" height="50" fill="#ffffff" opacity="0.75"/>
      <rect x="99" y="105" width="2" height="50" fill="#000000" opacity="0.4"/>
      <rect x="90" y="128" width="35" height="2" fill="#000000" opacity="0.4"/>

      <!-- Windows - Middle floor -->
      <rect x="15" y="180" width="35" height="50" fill="#ffffff" opacity="0.75"/>
      <rect x="24" y="180" width="2" height="50" fill="#000000" opacity="0.4"/>
      <rect x="15" y="203" width="35" height="2" fill="#000000" opacity="0.4"/>

      <rect x="90" y="180" width="35" height="50" fill="#ffffff" opacity="0.75"/>
      <rect x="99" y="180" width="2" height="50" fill="#000000" opacity="0.4"/>
      <rect x="90" y="203" width="35" height="2" fill="#000000" opacity="0.4"/>

      <!-- Door with arched top -->
      <rect x="55" y="300" width="30" height="65" fill="#ffffff" opacity="0.7"/>
      <path d="M 55 300 Q 70 290 85 300" fill="#ffffff" opacity="0.7"/>

      <!-- Stoop -->
      <rect x="50" y="365" width="40" height="8" fill="#000000" opacity="0.85"/>
      <rect x="47" y="373" width="46" height="8" fill="#000000" opacity="0.8"/>
      <rect x="44" y="381" width="52" height="8" fill="#000000" opacity="0.75"/>
    </g>

    <!-- House 2 - Formstone -->
    <g>
      <rect x="140" y="80" width="150" height="320"/>
      <!-- Cornice -->
      <rect x="140" y="80" width="150" height="8" fill="#000000" opacity="0.95"/>
      <rect x="140" y="88" width="150" height="3" fill="#ffffff" opacity="0.6"/>

      <!-- Formstone texture (smoother) -->
      <g opacity="0.15" fill="#ffffff">
        <rect x="145" y="100" width="140" height="2"/>
        <rect x="145" y="120" width="140" height="2"/>
        <rect x="145" y="140" width="140" height="2"/>
      </g>

      <!-- Windows - Upper -->
      <rect x="155" y="105" width="35" height="50" fill="#ffffff" opacity="0.75"/>
      <rect x="164" y="105" width="2" height="50" fill="#000000" opacity="0.4"/>
      <rect x="155" y="128" width="35" height="2" fill="#000000" opacity="0.4"/>

      <rect x="245" y="105" width="35" height="50" fill="#ffffff" opacity="0.75"/>
      <rect x="254" y="105" width="2" height="50" fill="#000000" opacity="0.4"/>
      <rect x="245" y="128" width="35" height="2" fill="#000000" opacity="0.4"/>

      <!-- Bay window -->
      <g>
        <path d="M 195 180 L 190 230 L 230 230 L 225 180 Z" fill="#ffffff" opacity="0.7" stroke="#000000" stroke-width="1" opacity="0.5"/>
        <rect x="200" y="190" width="2" height="38" fill="#000000" opacity="0.4"/>
        <rect x="218" y="190" width="2" height="38" fill="#000000" opacity="0.4"/>
        <rect x="190" y="205" width="40" height="2" fill="#000000" opacity="0.4"/>
      </g>

      <!-- Door with transom -->
      <circle cx="215" cy="295" r="12" fill="#ffffff" opacity="0.7"/>
      <rect x="195" y="300" width="40" height="65" fill="#ffffff" opacity="0.7"/>

      <!-- Stoop -->
      <rect x="190" y="365" width="50" height="8" fill="#000000" opacity="0.85"/>
      <rect x="187" y="373" width="56" height="8" fill="#000000" opacity="0.8"/>
      <rect x="184" y="381" width="62" height="8" fill="#000000" opacity="0.75"/>
    </g>

    <!-- House 3 - Painted brick -->
    <g>
      <rect x="290" y="80" width="140" height="320"/>
      <!-- Decorative cornice -->
      <rect x="290" y="80" width="140" height="10" fill="#000000" opacity="0.95"/>
      <g fill="#ffffff" opacity="0.6">
        <rect x="295" y="85" width="5" height="5"/>
        <rect x="305" y="85" width="5" height="5"/>
        <rect x="315" y="85" width="5" height="5"/>
        <rect x="325" y="85" width="5" height="5"/>
        <rect x="335" y="85" width="5" height="5"/>
        <rect x="345" y="85" width="5" height="5"/>
        <rect x="355" y="85" width="5" height="5"/>
        <rect x="365" y="85" width="5" height="5"/>
        <rect x="375" y="85" width="5" height="5"/>
        <rect x="385" y="85" width="5" height="5"/>
        <rect x="395" y="85" width="5" height="5"/>
        <rect x="405" y="85" width="5" height="5"/>
        <rect x="415" y="85" width="5" height="5"/>
      </g>

      <!-- Windows - Upper -->
      <rect x="305" y="105" width="35" height="50" fill="#ffffff" opacity="0.75"/>
      <rect x="314" y="105" width="2" height="50" fill="#000000" opacity="0.4"/>
      <rect x="305" y="128" width="35" height="2" fill="#000000" opacity="0.4"/>

      <rect x="380" y="105" width="35" height="50" fill="#ffffff" opacity="0.75"/>
      <rect x="389" y="105" width="2" height="50" fill="#000000" opacity="0.4"/>
      <rect x="380" y="128" width="35" height="2" fill="#000000" opacity="0.4"/>

      <!-- Windows - Middle -->
      <rect x="305" y="180" width="35" height="50" fill="#ffffff" opacity="0.75"/>
      <rect x="314" y="180" width="2" height="50" fill="#000000" opacity="0.4"/>
      <rect x="305" y="203" width="35" height="2" fill="#000000" opacity="0.4"/>

      <rect x="380" y="180" width="35" height="50" fill="#ffffff" opacity="0.75"/>
      <rect x="389" y="180" width="2" height="50" fill="#000000" opacity="0.4"/>
      <rect x="380" y="203" width="35" height="2" fill="#000000" opacity="0.4"/>

      <!-- Door - rectangular with window -->
      <rect x="345" y="280" width="30" height="20" fill="#ffffff" opacity="0.6"/>
      <rect x="345" y="300" width="30" height="65" fill="#ffffff" opacity="0.7"/>

      <!-- Stoop -->
      <rect x="340" y="365" width="40" height="8" fill="#000000" opacity="0.85"/>
      <rect x="337" y="373" width="46" height="8" fill="#000000" opacity="0.8"/>
      <rect x="334" y="381" width="52" height="8" fill="#000000" opacity="0.75"/>
    </g>

    <!-- House 4 - Brick with stone trim -->
    <g>
      <rect x="430" y="80" width="155" height="320"/>
      <!-- Cornice -->
      <rect x="430" y="80" width="155" height="8" fill="#000000" opacity="0.95"/>
      <rect x="430" y="88" width="155" height="3" fill="#ffffff" opacity="0.6"/>

      <!-- Brick pattern -->
      <g opacity="0.25" fill="#ffffff">
        <rect x="435" y="100" width="15" height="3"/>
        <rect x="455" y="100" width="15" height="3"/>
        <rect x="475" y="100" width="15" height="3"/>
        <rect x="495" y="100" width="15" height="3"/>
        <rect x="515" y="100" width="15" height="3"/>
        <rect x="535" y="100" width="15" height="3"/>
        <rect x="555" y="100" width="15" height="3"/>
      </g>

      <!-- Windows - Upper with decorative arches -->
      <rect x="445" y="105" width="35" height="50" fill="#ffffff" opacity="0.75"/>
      <path d="M 445 105 Q 462.5 95 480 105" fill="#ffffff" opacity="0.7"/>
      <rect x="454" y="105" width="2" height="50" fill="#000000" opacity="0.4"/>
      <rect x="445" y="128" width="35" height="2" fill="#000000" opacity="0.4"/>

      <rect x="535" y="105" width="35" height="50" fill="#ffffff" opacity="0.75"/>
      <path d="M 535 105 Q 552.5 95 570 105" fill="#ffffff" opacity="0.7"/>
      <rect x="544" y="105" width="2" height="50" fill="#000000" opacity="0.4"/>
      <rect x="535" y="128" width="35" height="2" fill="#000000" opacity="0.4"/>

      <!-- Windows - Middle -->
      <rect x="445" y="180" width="35" height="50" fill="#ffffff" opacity="0.75"/>
      <rect x="454" y="180" width="2" height="50" fill="#000000" opacity="0.4"/>
      <rect x="445" y="203" width="35" height="2" fill="#000000" opacity="0.4"/>

      <rect x="535" y="180" width="35" height="50" fill="#ffffff" opacity="0.75"/>
      <rect x="544" y="180" width="2" height="50" fill="#000000" opacity="0.4"/>
      <rect x="535" y="203" width="35" height="2" fill="#000000" opacity="0.4"/>

      <!-- Arched door with detailed transom -->
      <path d="M 485 300 Q 507.5 285 530 300" fill="#ffffff" opacity="0.7"/>
      <circle cx="507.5" cy="297" r="10" fill="#ffffff" opacity="0.7"/>
      <rect x="485" y="300" width="45" height="65" fill="#ffffff" opacity="0.7"/>

      <!-- Stoop -->
      <rect x="480" y="365" width="55" height="8" fill="#000000" opacity="0.85"/>
      <rect x="477" y="373" width="61" height="8" fill="#000000" opacity="0.8"/>
      <rect x="474" y="381" width="67" height="8" fill="#000000" opacity="0.75"/>
    </g>

    <!-- House 5 - Narrow formstone -->
    <g>
      <rect x="585" y="80" width="130" height="320"/>
      <!-- Simple cornice -->
      <rect x="585" y="80" width="130" height="6" fill="#000000" opacity="0.95"/>

      <!-- Windows - Upper -->
      <rect x="600" y="105" width="35" height="50" fill="#ffffff" opacity="0.75"/>
      <rect x="609" y="105" width="2" height="50" fill="#000000" opacity="0.4"/>
      <rect x="600" y="128" width="35" height="2" fill="#000000" opacity="0.4"/>

      <rect x="665" y="105" width="35" height="50" fill="#ffffff" opacity="0.75"/>
      <rect x="674" y="105" width="2" height="50" fill="#000000" opacity="0.4"/>
      <rect x="665" y="128" width="35" height="2" fill="#000000" opacity="0.4"/>

      <!-- Windows - Middle -->
      <rect x="600" y="180" width="35" height="50" fill="#ffffff" opacity="0.75"/>
      <rect x="609" y="180" width="2" height="50" fill="#000000" opacity="0.4"/>
      <rect x="600" y="203" width="35" height="2" fill="#000000" opacity="0.4"/>

      <rect x="665" y="180" width="35" height="50" fill="#ffffff" opacity="0.75"/>
      <rect x="674" y="180" width="2" height="50" fill="#000000" opacity="0.4"/>
      <rect x="665" y="203" width="35" height="2" fill="#000000" opacity="0.4"/>

      <!-- Door -->
      <rect x="640" y="300" width="30" height="65" fill="#ffffff" opacity="0.7"/>

      <!-- Stoop -->
      <rect x="635" y="365" width="40" height="8" fill="#000000" opacity="0.85"/>
      <rect x="632" y="373" width="46" height="8" fill="#000000" opacity="0.8"/>
      <rect x="629" y="381" width="52" height="8" fill="#000000" opacity="0.75"/>
    </g>

    <!-- House 6 - Brick with detailed cornice -->
    <g>
      <rect x="715" y="80" width="145" height="320"/>
      <!-- Detailed cornice with dentils -->
      <rect x="715" y="80" width="145" height="10" fill="#000000" opacity="0.95"/>
      <g fill="#ffffff" opacity="0.6">
        <rect x="720" y="85" width="4" height="5"/>
        <rect x="728" y="85" width="4" height="5"/>
        <rect x="736" y="85" width="4" height="5"/>
        <rect x="744" y="85" width="4" height="5"/>
        <rect x="752" y="85" width="4" height="5"/>
        <rect x="760" y="85" width="4" height="5"/>
        <rect x="768" y="85" width="4" height="5"/>
        <rect x="776" y="85" width="4" height="5"/>
        <rect x="784" y="85" width="4" height="5"/>
        <rect x="792" y="85" width="4" height="5"/>
        <rect x="800" y="85" width="4" height="5"/>
        <rect x="808" y="85" width="4" height="5"/>
        <rect x="816" y="85" width="4" height="5"/>
        <rect x="824" y="85" width="4" height="5"/>
        <rect x="832" y="85" width="4" height="5"/>
        <rect x="840" y="85" width="4" height="5"/>
        <rect x="848" y="85" width="4" height="5"/>
      </g>

      <!-- Brick pattern -->
      <g opacity="0.25" fill="#ffffff">
        <rect x="720" y="100" width="15" height="3"/>
        <rect x="740" y="100" width="15" height="3"/>
        <rect x="760" y="100" width="15" height="3"/>
        <rect x="780" y="100" width="15" height="3"/>
        <rect x="800" y="100" width="15" height="3"/>
        <rect x="820" y="100" width="15" height="3"/>
        <rect x="840" y="100" width="15" height="3"/>
      </g>

      <!-- Windows - Upper -->
      <rect x="730" y="105" width="35" height="50" fill="#ffffff" opacity="0.75"/>
      <rect x="739" y="105" width="2" height="50" fill="#000000" opacity="0.4"/>
      <rect x="730" y="128" width="35" height="2" fill="#000000" opacity="0.4"/>

      <rect x="810" y="105" width="35" height="50" fill="#ffffff" opacity="0.75"/>
      <rect x="819" y="105" width="2" height="50" fill="#000000" opacity="0.4"/>
      <rect x="810" y="128" width="35" height="2" fill="#000000" opacity="0.4"/>

      <!-- Windows - Middle -->
      <rect x="730" y="180" width="35" height="50" fill="#ffffff" opacity="0.75"/>
      <rect x="739" y="180" width="2" height="50" fill="#000000" opacity="0.4"/>
      <rect x="730" y="203" width="35" height="2" fill="#000000" opacity="0.4"/>

      <rect x="810" y="180" width="35" height="50" fill="#ffffff" opacity="0.75"/>
      <rect x="819" y="180" width="2" height="50" fill="#000000" opacity="0.4"/>
      <rect x="810" y="203" width="35" height="2" fill="#000000" opacity="0.4"/>

      <!-- Door with sidelights -->
      <rect x="760" y="300" width="10" height="65" fill="#ffffff" opacity="0.6"/>
      <rect x="770" y="300" width="30" height="65" fill="#ffffff" opacity="0.7"/>
      <rect x="800" y="300" width="10" height="65" fill="#ffffff" opacity="0.6"/>

      <!-- Stoop -->
      <rect x="760" y="365" width="50" height="8" fill="#000000" opacity="0.85"/>
      <rect x="757" y="373" width="56" height="8" fill="#000000" opacity="0.8"/>
      <rect x="754" y="381" width="62" height="8" fill="#000000" opacity="0.75"/>
    </g>

    <!-- House 7 - End house with stone accents -->
    <g>
      <rect x="860" y="80" width="155" height="320"/>
      <!-- Cornice -->
      <rect x="860" y="80" width="155" height="8" fill="#000000" opacity="0.95"/>
      <rect x="860" y="88" width="155" height="3" fill="#ffffff" opacity="0.6"/>

      <!-- Windows - Upper with stone lintels -->
      <rect x="875" y="105" width="35" height="50" fill="#ffffff" opacity="0.75"/>
      <rect x="870" y="100" width="45" height="4" fill="#ffffff" opacity="0.5"/>
      <rect x="884" y="105" width="2" height="50" fill="#000000" opacity="0.4"/>
      <rect x="875" y="128" width="35" height="2" fill="#000000" opacity="0.4"/>

      <rect x="965" y="105" width="35" height="50" fill="#ffffff" opacity="0.75"/>
      <rect x="960" y="100" width="45" height="4" fill="#ffffff" opacity="0.5"/>
      <rect x="974" y="105" width="2" height="50" fill="#000000" opacity="0.4"/>
      <rect x="965" y="128" width="35" height="2" fill="#000000" opacity="0.4"/>

      <!-- Windows - Middle -->
      <rect x="875" y="180" width="35" height="50" fill="#ffffff" opacity="0.75"/>
      <rect x="870" y="175" width="45" height="4" fill="#ffffff" opacity="0.5"/>
      <rect x="884" y="180" width="2" height="50" fill="#000000" opacity="0.4"/>
      <rect x="875" y="203" width="35" height="2" fill="#000000" opacity="0.4"/>

      <rect x="965" y="180" width="35" height="50" fill="#ffffff" opacity="0.75"/>
      <rect x="960" y="175" width="45" height="4" fill="#ffffff" opacity="0.5"/>
      <rect x="974" y="180" width="2" height="50" fill="#000000" opacity="0.4"/>
      <rect x="965" y="203" width="35" height="2" fill="#000000" opacity="0.4"/>

      <!-- Door - arched with detailed surround -->
      <path d="M 915 300 Q 935 285 955 300" fill="#ffffff" opacity="0.7"/>
      <rect x="910" y="295" width="50" height="5" fill="#ffffff" opacity="0.5"/>
      <rect x="915" y="300" width="40" height="65" fill="#ffffff" opacity="0.7"/>

      <!-- Stoop -->
      <rect x="910" y="365" width="50" height="8" fill="#000000" opacity="0.85"/>
      <rect x="907" y="373" width="56" height="8" fill="#000000" opacity="0.8"/>
      <rect x="904" y="381" width="62" height="8" fill="#000000" opacity="0.75"/>
    </g>

    <!-- House 8 - Final house -->
    <g>
      <rect x="1015" y="80" width="185" height="320"/>
      <!-- Cornice with modillions -->
      <rect x="1015" y="80" width="185" height="10" fill="#000000" opacity="0.95"/>
      <g fill="#ffffff" opacity="0.6">
        <rect x="1020" y="83" width="8" height="7"/>
        <rect x="1035" y="83" width="8" height="7"/>
        <rect x="1050" y="83" width="8" height="7"/>
        <rect x="1065" y="83" width="8" height="7"/>
        <rect x="1080" y="83" width="8" height="7"/>
        <rect x="1095" y="83" width="8" height="7"/>
        <rect x="1110" y="83" width="8" height="7"/>
        <rect x="1125" y="83" width="8" height="7"/>
        <rect x="1140" y="83" width="8" height="7"/>
        <rect x="1155" y="83" width="8" height="7"/>
        <rect x="1170" y="83" width="8" height="7"/>
        <rect x="1185" y="83" width="8" height="7"/>
      </g>

      <!-- Windows - Upper -->
      <rect x="1030" y="105" width="35" height="50" fill="#ffffff" opacity="0.75"/>
      <rect x="1039" y="105" width="2" height="50" fill="#000000" opacity="0.4"/>
      <rect x="1030" y="128" width="35" height="2" fill="#000000" opacity="0.4"/>

      <rect x="1105" y="105" width="35" height="50" fill="#ffffff" opacity="0.75"/>
      <rect x="1114" y="105" width="2" height="50" fill="#000000" opacity="0.4"/>
      <rect x="1105" y="128" width="35" height="2" fill="#000000" opacity="0.4"/>

      <!-- Windows - Middle -->
      <rect x="1030" y="180" width="35" height="50" fill="#ffffff" opacity="0.75"/>
      <rect x="1039" y="180" width="2" height="50" fill="#000000" opacity="0.4"/>
      <rect x="1030" y="203" width="35" height="2" fill="#000000" opacity="0.4"/>

      <rect x="1105" y="180" width="35" height="50" fill="#ffffff" opacity="0.75"/>
      <rect x="1114" y="180" width="2" height="50" fill="#000000" opacity="0.4"/>
      <rect x="1105" y="203" width="35" height="2" fill="#000000" opacity="0.4"/>

      <!-- Center door -->
      <rect x="1070" y="300" width="35" height="65" fill="#ffffff" opacity="0.7"/>

      <!-- Stoop -->
      <rect x="1065" y="365" width="45" height="8" fill="#000000" opacity="0.85"/>
      <rect x="1062" y="373" width="51" height="8" fill="#000000" opacity="0.8"/>
      <rect x="1059" y="381" width="57" height="8" fill="#000000" opacity="0.75"/>
    </g>

  </g>
</svg>
