<?xml version="1.0" encoding="UTF-8" standalone="no"?>
<!-- Created with Inkscape (http://www.inkscape.org/) -->

<svg
   version="1.1"
   id="svg1"
   width="198"
   height="343"
   viewBox="0 0 198 343"
   xmlns="http://www.w3.org/2000/svg"
   xmlns:svg="http://www.w3.org/2000/svg">
  <defs
     id="defs1" />
  <g
     id="g1">
    <path
       style="fill:#000000"
       d="m 176.08984,314.48299 -6.8307,-1.65333 c -1.63394,-0.39548 -5.5274,2.61733 -5.82122,2.61733 -0.29382,0 -0.59641,-1.65428 -0.67242,-3.67617 -0.19364,-5.15084 -1.43633,-2.06306 -2.55718,-2.27021 -1.80034,-0.33274 -4.07399,2.82169 -5.13941,1.93747 -0.97935,-0.81279 -0.94191,0.59597 -1.84941,-0.0605 l -3.12966,-2.26394 -5.05253,-1.11538 -4.28161,2.02034 -5.16586,0.42837 -3.5,-2.5 -3.16416,1.33363 -3.79323,-1.27672 -5.52455,2.5 -4.29211,-0.0528 -3.18856,0.0657 -1.7445,-2.11383 -0.90753,-0.63168 -2.12163,1.8466 -6.21838,-1.88891 -1.669996,0.90625 -5.798863,0.27151 -9.06179,0.77035 -3.144677,-3.45711 -4.016183,-0.11377 -4.16413,2.5 -5.6668,1.42812 -1.9319,3.58732 -2.5455,-3.09634 -7.04551,-0.0783 -2.82256,3 -4.974803,-2.3164 -8.318754,-0.11774 -3.662579,0.0987 -4.631084,1.58548 -4.59022,-0.25 -4.18358,0.54923 -0.31642,2.54922 -5,-2.54504 c -2.27527,-1.15813 -9.0101995,-3.1646 -9.0101995,-1.55341 0,0.55 -0.45,1 -1,1 -0.55,0 0.29941,-0.60633 0.5102,-0.8672 6.2634095,-7.75173 9.0739595,-9.58242 22.0101595,-20.23437 l 23.52036,-19.36718 -0.27036,-19.51563 -0.27036,-19.51562 -10.12598,-2.5 c -5.56929,-1.375 -17.470288,0.53731 -18.452428,-1.34835 -1.100851,-2.11358 -0.331592,-14.57498 0.395378,-15.30195 0.37846,-0.37846 27.17219,-7.3497 28.24833,-7.3497 0.2763,0 0.22941,-7.12546 0.21853,-10.68966 -0.0109,-3.5642 -0.28383,-10.68965 -0.28383,-10.68965 l -7.5,-1.80751 c -15.568693,-3.75208 -20.678481,-0.95899 -21.053817,-7.29915 -0.283116,-4.78238 0.133727,-9.94538 0.853587,-10.39028 0.59656,-0.36869 7.20037,-2.17215 14.67515,-4.00769 l 13.5905,-3.33734 -0.28271,-10.57844 -0.28271,-10.57845 c -0.369043,-0.40963 -3.559095,-1.53872 -17.832531,-2.8028 -5.461251,-0.48366 -8.94351,-1.03846 -10.974066,-3.73043 -2.287473,-3.03257 -0.234776,-13.72782 0.683894,-14.56766 0.42303,-0.38672 7.310203,-0.74859 14.872703,-2.53263 l 13.75,-3.24371 v -9.39374 c 0,-11.028386 2.928633,-12.499745 -13.772477,-16.413329 -6.03959,-1.415263 -8.770261,0.98667 -11.478752,-1.896676 C 20.930117,74.611936 10.375031,73.721272 11.706271,72.390037 12.221981,71.874322 29.961564,66.843055 39.835544,62.526794 52.667694,56.917411 59.960038,54.580052 68.506789,48.819878 77.883252,42.50051 84.168914,34.57637 88.694651,31.216583 l 7.72553,-5.735229 c 0,0 -1.464749,-0.815851 -1.295495,-2.288846 0.127105,-1.106176 0.609636,-1.474601 0.62675,-1.752563 0.07736,-1.25639 0.06713,-2.906357 0.06713,-2.906357 l -6.898147,-0.04395 0.01255,-0.281671 6.819376,-0.17877 -0.04084,-2.003737 -6.380974,2.31554 -0.363722,-0.146472 6.705641,-2.549619 C 89.091291,15.453217 84.359623,15.316376 84.359623,15.316376 l -0.09909,0.427806 -1.823631,-0.983372 2.088442,-0.858932 -0.09233,0.466519 11.448057,-0.03196 2.503938,-12.6206541 2.219561,12.6111241 2.98382,-0.09974 2.89877,-0.08136 c 0,0 2.95216,-1.791018 4.4568,-1.829773 1.94676,-0.05014 3.08108,1.007857 3.14311,2.210448 0.0703,1.360901 -1.89238,2.101566 -2.95374,2.241938 -1.39626,0.184676 -4.66426,-1.536934 -4.66426,-1.536934 l -2.81037,0.124111 -2.94676,0.165774 5.46697,2.400371 0.0407,0.305484 -5.45651,-2.294882 -0.0185,2.217654 5.42822,-0.07181 0.0996,0.34066 -5.55081,0.0043 c 0,0 0.0675,1.287428 0.0396,3.046781 -0.006,0.372107 0.55306,0.775165 0.65115,1.888805 0.0946,1.073463 -1.12422,2.108563 -1.12422,2.108563 l 10.58803,8.182142 c 3.80382,2.93949 10.66319,10.473128 14.40109,11.687626 8.88372,2.886449 17.8536,8.705568 30.29688,14.243763 9.60454,4.274742 25.20784,10.294265 27.73345,10.692941 1.35166,0.213364 -12.63754,11.352693 -14.42243,11.991222 -2.54943,0.912034 -10.48028,0.511844 -15.96301,1.971711 l -10.34281,2.753945 v 13.440933 9.81016 l 13.55779,3.3293 c 7.45679,1.83112 14.01573,3.61233 14.57542,3.95824 0.63073,0.38981 -0.11689,3.13104 -1.96645,7.21016 -1.4685,3.23871 0.14108,7.15886 -1.42257,8.32142 -1.94781,1.44817 -7.64921,-0.11476 -16.74419,2.14407 l -7.5,1.8627 -0.28355,10.66219 -0.28356,10.66218 2.78356,0.63678 c 9.36581,2.14259 25.50448,6.30576 25.87299,6.67427 0.75348,0.75349 0.86132,13.10771 -1.09611,14.85145 -1.02675,0.91465 -11.01215,2.9784 -16.63978,3.49227 l -10.35355,0.94542 -0.28355,10.6999 -0.28356,10.69991 2.78356,0.63814 c 7.53202,1.72673 24.61027,6.4102 25.07711,6.87703 1.0339,1.0339 1.0911,12.61429 -1.40258,15.13747 -1.89907,1.92151 -7.81171,2.09307 -15.78743,2.81549 l -10.60355,0.96045 v 19.648 19.648 l 8.16337,6.91519 c 4.48985,3.80335 11.80235,9.98322 16.25,13.73304 13.85385,11.68022 20.58663,17.77446 20.58663,18.63419 0,0.83425 -6.58022,4.19162 -10.75,5.48489 -1.9994,0.62011 0.32623,-2.14291 -0.7398,-2.40094 z"
       id="path1" />
  </g>
</svg>
